<svg width="215" height="38" viewBox="0 0 215 38" fill="none" xmlns="http://www.w3.org/2000/svg">
<mask id="mask0_188_2" style="mask-type:luminance" maskUnits="userSpaceOnUse" x="59" y="0" width="156" height="38">
<path d="M214.399 0.463104H59.0596V37.5369H214.399V0.463104Z" fill="white"/>
</mask>
<g mask="url(#mask0_188_2)">
<path fill-rule="evenodd" clip-rule="evenodd" d="M110.636 12.054C109.701 10.1643 108.242 8.62198 106.454 7.63361C108.24 6.64737 109.699 5.10834 110.636 3.2222C111.568 5.10873 113.025 6.64825 114.81 7.63361C113.023 8.6211 111.567 10.1639 110.636 12.054ZM59.0581 6.12726H63.7875V23.7729C63.7875 26.6375 64.3219 28.8119 65.3909 30.2465C66.4597 31.6811 68.1054 32.3759 70.3662 32.3759C72.627 32.3759 74.3108 31.6811 75.3798 30.2465C76.4486 28.8119 77.0255 26.6375 77.0255 23.7729V6.12726H81.755V23.5083C81.755 27.8569 80.7667 31.161 78.8367 33.4205C76.9068 35.68 74.0649 36.8098 70.3535 36.8098C66.6421 36.8098 63.8129 35.68 61.9212 33.4205C60.0295 31.161 59.0454 27.8569 59.0454 23.5083L59.0581 6.12726ZM96.6812 14.0355C99.1497 14.0355 101.203 14.8604 102.768 16.4699C104.333 18.0793 105.152 20.7289 105.152 24.2929V36.5498H100.664V24.5529C100.664 22.4682 100.214 20.8588 99.3916 19.7291C98.5686 18.5993 97.2919 18.0793 95.6504 18.0793C94.861 18.0378 94.0735 18.193 93.3514 18.5326C92.6294 18.8721 91.9929 19.3863 91.4936 20.0339C90.5096 21.3386 90.0133 23.0735 90.0133 25.3375V36.5453H85.5723V14.2955H89.4406L89.9327 17.2096C91.4936 15.1204 93.7587 14.0355 96.6812 14.0355ZM108.367 14.2955V36.5498H112.799V14.2955H108.367ZM116.341 36.5498V6.12726H120.773V25.1626L130.398 14.2955H135.538L127.683 23.2618L136.03 36.5632H130.767L124.519 26.7004L120.773 30.8741V36.5677L116.341 36.5498ZM140.594 35.42C142.339 36.3342 144.261 36.8099 146.208 36.8099C148.155 36.8099 150.077 36.3342 151.822 35.42C153.426 34.506 154.741 33.1158 155.605 31.4211C156.534 29.5765 157.002 27.5117 156.962 25.4227C156.996 23.3613 156.53 21.3251 155.605 19.5094C154.741 17.8051 153.427 16.4033 151.822 15.4746C150.085 14.5329 148.161 14.0417 146.208 14.0417C144.256 14.0417 142.332 14.5329 140.594 15.4746C138.99 16.4033 137.675 17.8051 136.811 19.5094C135.901 21.329 135.448 23.3651 135.496 25.4227C135.444 27.5078 135.896 29.5727 136.811 31.4211C137.675 33.1152 138.988 34.5053 140.59 35.42H140.594ZM150.71 30.7666C150.158 31.442 149.466 31.9766 148.69 32.3307C147.914 32.6846 147.072 32.8488 146.227 32.8108C144.335 32.8108 142.855 32.1607 141.748 30.7666C140.641 29.3723 140.051 27.5969 140.051 25.4227C140.051 23.2483 140.586 21.5088 141.748 20.1192C142.293 19.4307 142.98 18.8843 143.757 18.5228C144.534 18.1612 145.379 17.9941 146.227 18.0344C147.074 18.005 147.917 18.1771 148.693 18.538C149.469 18.8987 150.159 19.439 150.71 20.1192C151.895 21.5955 152.511 23.4886 152.438 25.4227C152.509 27.3696 151.892 29.2752 150.706 30.7666H150.71ZM170.357 14.2955H171.334V18.6846H169.361C167.507 18.6846 166.192 19.3391 165.369 20.5988C164.505 22.0207 164.074 23.6888 164.136 25.3778V36.5498H159.703V14.2955H163.652L164.144 17.6445C164.707 16.627 165.517 15.7865 166.49 15.2101C167.436 14.6004 168.712 14.2955 170.353 14.2955H170.357ZM190.531 16.4699C188.965 14.8604 186.913 14.0355 184.443 14.0355C181.526 14.0355 179.265 15.1204 177.7 17.2096L177.207 14.2955H173.343V36.5498H177.78V25.3419C177.78 23.1004 178.273 21.3431 179.261 20.0384C180.249 18.7338 181.645 18.0838 183.413 18.0838C185.059 18.0838 186.289 18.6487 187.155 19.7336C188.02 20.8185 188.428 22.4727 188.428 24.5574V36.5543H192.906V24.2929C192.91 20.7289 192.087 18.1017 190.526 16.4699H190.531ZM195.392 29.2019H199.667C199.699 29.7707 199.854 30.3243 200.117 30.8213C200.381 31.3182 200.748 31.7455 201.19 32.0711C202.278 32.8483 203.576 33.2306 204.889 33.1605C206.018 33.2088 207.139 32.938 208.138 32.3759C208.516 32.17 208.835 31.8586 209.06 31.4755C209.283 31.0925 209.405 30.6521 209.411 30.2017C209.427 29.8927 209.384 29.5835 209.285 29.2923C209.186 29.0011 209.032 28.734 208.833 28.5071C208.373 28.1297 207.841 27.8634 207.272 27.727C206.293 27.4938 205.301 27.3186 204.303 27.2024C202.759 27.0537 201.23 26.7535 199.74 26.3059C198.635 25.975 197.638 25.328 196.859 24.4364C196.121 23.5666 195.791 22.4369 195.791 20.9575C195.761 19.6699 196.139 18.4088 196.859 17.3709C197.642 16.2859 198.677 15.4322 199.862 14.8918C201.244 14.2955 202.726 13.9997 204.218 14.0221C206.853 14.0221 209.032 14.6766 210.675 15.8915C211.476 16.491 212.138 17.2767 212.608 18.1882C213.079 19.0996 213.346 20.1128 213.389 21.1503H209.083C209.02 20.6546 208.86 20.1783 208.613 19.7521C208.364 19.3259 208.035 18.9592 207.645 18.6756C206.701 17.9778 205.57 17.6196 204.418 17.6534C203.326 17.5958 202.243 17.8663 201.292 18.4334C200.926 18.6381 200.622 18.9452 200.412 19.3208C200.202 19.6967 200.093 20.1264 200.099 20.563C200.073 20.8466 200.111 21.1331 200.212 21.3977C200.313 21.6624 200.472 21.8975 200.677 22.0827C201.122 22.4424 201.643 22.6825 202.195 22.7821C202.772 22.9121 203.76 23.0421 205.114 23.2304C206.663 23.3864 208.193 23.7079 209.681 24.1899C210.827 24.5544 211.854 25.2463 212.651 26.1892C213.389 27.0859 213.757 28.3188 213.757 29.8833C213.766 31.2143 213.363 32.5117 212.608 33.5774C211.771 34.6657 210.681 35.5046 209.444 36.0118C207.997 36.5846 206.463 36.8645 204.918 36.8367C202.081 36.8367 199.778 36.1822 198.052 34.8372C197.208 34.1967 196.524 33.349 196.061 32.3673C195.596 31.3854 195.365 30.2992 195.387 29.2019H195.392Z" fill="white"/>
</g>
<path fill-rule="evenodd" clip-rule="evenodd" d="M32.6495 0.463104H0.601562V22.8339L32.6495 0.463104ZM15.8122 37.5369H35.6781V3.73689L15.8122 37.5369Z" fill="white"/>
</svg>
